<mxfile host="app.diagrams.net" modified="2022-11-03T15:16:47.358Z" agent="5.0 (Macintosh; Intel Mac OS X 10_15_7) AppleWebKit/537.36 (KHTML, like Gecko) Chrome/107.0.0.0 Safari/537.36 Edg/107.0.1418.28" etag="GQLBANwl3QR2nUVgux6t" version="20.5.1" type="github">
  <diagram id="VljwoTHKXERHNIV1dbH1" name="Page-1">
    <mxGraphModel dx="946" dy="615" grid="1" gridSize="10" guides="1" tooltips="1" connect="1" arrows="1" fold="1" page="1" pageScale="1" pageWidth="850" pageHeight="1100" math="0" shadow="0">
      <root>
        <mxCell id="0" />
        <mxCell id="1" parent="0" />
        <mxCell id="cckRXHUOgSj-IITKKaSx-1" value="" style="rounded=0;whiteSpace=wrap;html=1;" vertex="1" parent="1">
          <mxGeometry x="120" y="160" width="480" height="320" as="geometry" />
        </mxCell>
        <mxCell id="cckRXHUOgSj-IITKKaSx-2" value="Blob Storage Account" style="verticalLabelPosition=bottom;html=1;verticalAlign=top;align=center;strokeColor=none;fillColor=#00BEF2;shape=mxgraph.azure.storage_blob;" vertex="1" parent="1">
          <mxGeometry x="385" y="370" width="80" height="70" as="geometry" />
        </mxCell>
        <mxCell id="cckRXHUOgSj-IITKKaSx-11" value="" style="edgeStyle=orthogonalEdgeStyle;rounded=0;orthogonalLoop=1;jettySize=auto;html=1;" edge="1" parent="1" source="cckRXHUOgSj-IITKKaSx-3" target="cckRXHUOgSj-IITKKaSx-2">
          <mxGeometry relative="1" as="geometry" />
        </mxCell>
        <mxCell id="cckRXHUOgSj-IITKKaSx-17" value="&lt;i&gt;Save Call Records&lt;/i&gt;" style="edgeLabel;html=1;align=center;verticalAlign=middle;resizable=0;points=[];" vertex="1" connectable="0" parent="cckRXHUOgSj-IITKKaSx-11">
          <mxGeometry x="-0.4568" y="-4" relative="1" as="geometry">
            <mxPoint x="8" y="71" as="offset" />
          </mxGeometry>
        </mxCell>
        <mxCell id="cckRXHUOgSj-IITKKaSx-12" value="&lt;i&gt;Fetch Call Records&lt;/i&gt;" style="edgeStyle=orthogonalEdgeStyle;rounded=0;orthogonalLoop=1;jettySize=auto;html=1;" edge="1" parent="1" source="cckRXHUOgSj-IITKKaSx-3" target="cckRXHUOgSj-IITKKaSx-9">
          <mxGeometry x="-0.2509" y="-14" relative="1" as="geometry">
            <mxPoint as="offset" />
          </mxGeometry>
        </mxCell>
        <mxCell id="cckRXHUOgSj-IITKKaSx-3" value="Azure Function" style="aspect=fixed;html=1;points=[];align=center;image;fontSize=12;image=img/lib/azure2/iot/Function_Apps.svg;" vertex="1" parent="1">
          <mxGeometry x="276.13" y="180" width="80.24" height="70.8" as="geometry" />
        </mxCell>
        <mxCell id="cckRXHUOgSj-IITKKaSx-10" value="" style="edgeStyle=orthogonalEdgeStyle;rounded=0;orthogonalLoop=1;jettySize=auto;html=1;" edge="1" parent="1" source="cckRXHUOgSj-IITKKaSx-5" target="cckRXHUOgSj-IITKKaSx-3">
          <mxGeometry relative="1" as="geometry">
            <Array as="points">
              <mxPoint x="200" y="215" />
            </Array>
          </mxGeometry>
        </mxCell>
        <mxCell id="cckRXHUOgSj-IITKKaSx-16" value="&lt;i&gt;Monitoring&lt;/i&gt;" style="edgeLabel;html=1;align=center;verticalAlign=middle;resizable=0;points=[];" vertex="1" connectable="0" parent="cckRXHUOgSj-IITKKaSx-10">
          <mxGeometry x="0.1554" y="2" relative="1" as="geometry">
            <mxPoint as="offset" />
          </mxGeometry>
        </mxCell>
        <mxCell id="cckRXHUOgSj-IITKKaSx-5" value="Application Insight" style="aspect=fixed;html=1;points=[];align=center;image;fontSize=12;image=img/lib/azure2/devops/Application_Insights.svg;" vertex="1" parent="1">
          <mxGeometry x="180" y="286" width="44" height="63" as="geometry" />
        </mxCell>
        <mxCell id="cckRXHUOgSj-IITKKaSx-7" value="App Service Plan&lt;br&gt;(Function Runntime)" style="aspect=fixed;html=1;points=[];align=center;image;fontSize=12;image=img/lib/azure2/app_services/App_Service_Environments.svg;" vertex="1" parent="1">
          <mxGeometry x="296.24" y="280" width="40" height="40" as="geometry" />
        </mxCell>
        <mxCell id="cckRXHUOgSj-IITKKaSx-8" value="Log Analytics Workspace&lt;br&gt;(Application Insights Basis)" style="aspect=fixed;html=1;points=[];align=center;image;fontSize=12;image=img/lib/azure2/analytics/Log_Analytics_Workspaces.svg;" vertex="1" parent="1">
          <mxGeometry x="170" y="375" width="64" height="64" as="geometry" />
        </mxCell>
        <mxCell id="cckRXHUOgSj-IITKKaSx-9" value="Microsoft Graph" style="shape=image;verticalLabelPosition=bottom;labelBackgroundColor=default;verticalAlign=top;aspect=fixed;imageAspect=0;image=https://1.bp.blogspot.com/-XRTHPrt7nR4/Xu9koskiFWI/AAAAAAAAGcY/SRKJLzVYSekWRZqd1Adyrg66-1eaghZmwCK4BGAsYHg/s191/graph-icon-1.png;" vertex="1" parent="1">
          <mxGeometry x="271.02" y="10" width="90.47" height="90" as="geometry" />
        </mxCell>
        <mxCell id="cckRXHUOgSj-IITKKaSx-18" value="" style="edgeStyle=orthogonalEdgeStyle;rounded=0;orthogonalLoop=1;jettySize=auto;html=1;" edge="1" parent="1" source="cckRXHUOgSj-IITKKaSx-13" target="cckRXHUOgSj-IITKKaSx-2">
          <mxGeometry relative="1" as="geometry" />
        </mxCell>
        <mxCell id="cckRXHUOgSj-IITKKaSx-19" value="&lt;i&gt;Fetch Data&lt;/i&gt;" style="edgeLabel;html=1;align=center;verticalAlign=middle;resizable=0;points=[];" vertex="1" connectable="0" parent="cckRXHUOgSj-IITKKaSx-18">
          <mxGeometry x="-0.2" y="-2" relative="1" as="geometry">
            <mxPoint as="offset" />
          </mxGeometry>
        </mxCell>
        <mxCell id="cckRXHUOgSj-IITKKaSx-13" value="Power BI&#xa;Visualisierungen" style="shape=image;verticalLabelPosition=bottom;labelBackgroundColor=default;verticalAlign=top;aspect=fixed;imageAspect=0;image=https://www.onmsft.com/wp-content/uploads/2020/10/newpowerbiicon.jpg;" vertex="1" parent="1">
          <mxGeometry x="620" y="328.5" width="135.33" height="101.5" as="geometry" />
        </mxCell>
        <mxCell id="cckRXHUOgSj-IITKKaSx-20" value="&lt;font style=&quot;font-size: 14px;&quot;&gt;&lt;b&gt;Azure&lt;/b&gt;&lt;/font&gt;" style="text;html=1;align=center;verticalAlign=middle;resizable=0;points=[];autosize=1;strokeColor=none;fillColor=none;" vertex="1" parent="1">
          <mxGeometry x="115" y="160" width="60" height="30" as="geometry" />
        </mxCell>
      </root>
    </mxGraphModel>
  </diagram>
</mxfile>
